# https://github.com/mikedh/trimesh
v -0.17393909 -0.18073861 -0.35113797
v -0.13525522 -0.18073861 -0.35113797
v -0.17393909 -0.13586599 -0.35113797
v -0.13525522 -0.13586599 -0.35113797
v -0.17767221 -0.18499345 -0.02943508
v -0.17393909 -0.18073861 -0.02994859
v -0.17767221 -0.18499345 0.00125546
v -0.13525522 -0.18073861 -0.02994859
v -0.17393909 -0.13586599 -0.02994859
v -0.13525522 -0.13586599 -0.02994859
v -0.17756045 0.14176261 -0.35113797
v -0.17756045 0.17753959 -0.35113797
v -0.13163482 0.14176261 -0.35113797
v -0.13163482 0.17753959 -0.35113797
v -0.17756045 0.14176261 -0.02994859
v -0.17756045 0.17753959 -0.02994859
v -0.17767221 0.18298730 -0.02943508
v -0.17767221 0.18298730 0.00125546
v -0.13163482 0.14176261 -0.02994859
v -0.13163482 0.17753959 -0.02994859
v 0.14149958 -0.17733587 -0.35113797
v 0.17737839 -0.17733587 -0.35113797
v 0.14149958 -0.13187273 -0.35113797
v 0.17737839 -0.13187273 -0.35113797
v 0.14149958 -0.17733587 -0.02994859
v 0.17929561 -0.18499345 -0.02943508
v 0.17737839 -0.17733587 -0.02994859
v 0.17929561 -0.18499345 0.00125546
v 0.14149958 -0.13187273 -0.02994859
v 0.17737839 -0.13187273 -0.02994859
v 0.14130402 0.14178038 -0.35113797
v 0.14132382 0.17754433 -0.35113797
v 0.17754728 0.14176027 -0.35113797
v 0.17756708 0.17752422 -0.35113797
v 0.14130402 0.14178038 -0.02994859
v 0.14132382 0.17754433 -0.02994859
v 0.17754728 0.14176027 -0.02994859
v 0.17756708 0.17752422 -0.02994859
v 0.17929561 0.18298730 -0.02943508
v 0.17929561 0.18298730 0.00125546
f 7 18 5
f 26 7 5
f 7 28 18
f 5 18 17
f 39 5 17
f 18 40 17
f 28 7 26
f 26 5 39
f 39 28 26
f 18 28 40
f 17 40 39
f 40 28 39
f 3 4 1
f 1 4 2
f 2 6 1
f 1 9 3
f 4 8 2
f 3 10 4
f 6 9 1
f 8 6 2
f 10 8 4
f 9 10 3
f 8 9 6
f 10 9 8
f 11 12 13
f 13 12 14
f 13 15 11
f 11 16 12
f 12 20 14
f 14 19 13
f 15 16 11
f 16 20 12
f 19 15 13
f 20 19 14
f 16 15 20
f 20 15 19
f 24 21 23
f 22 21 24
f 22 25 21
f 21 29 23
f 24 27 22
f 23 30 24
f 25 29 21
f 27 25 22
f 30 27 24
f 29 30 23
f 25 27 29
f 29 27 30
f 32 33 31
f 34 33 32
f 33 35 31
f 31 36 32
f 34 37 33
f 32 38 34
f 35 36 31
f 36 38 32
f 37 35 33
f 38 37 34
f 35 38 36
f 37 38 35

